<?xml version="1.0" encoding="UTF-8"?>
<svg xmlns="http://www.w3.org/2000/svg" xmlns:xlink="http://www.w3.org/1999/xlink" viewBox="0 0 20.66 20.7">
  <defs>
    <linearGradient id="g1" x1="10.33" y1=".07" x2="10.33" y2="21.27" gradientUnits="userSpaceOnUse">
      <stop offset="0" stop-color="#ff3a00"/>
      <stop offset=".96" stop-color="#ed8300"/>
    </linearGradient>
    <linearGradient id="g2" x1="7.26" y1=".07" x2="7.26" y2="21.27" xlink:href="#g1"/>
    <linearGradient id="g3" x1="13.39" y1=".07" x2="13.39" y2="21.27" xlink:href="#g1"/>
  </defs>
  <path fill="url(#g1)" d="M17.4,16.24l-6.32-1.17c-1.43-.27-2.81-1.42-3.22-2.7L4.86,3.01l-.54-.1c-.92-.17-1.45.37-1.18,1.2l3.35,10.44c.27.83,1.23,1.65,2.15,1.82l7.7,1.43c.92.17,1.45-.37,1.18-1.2l-.11-.35Z"/>
  <path fill="url(#g2)" d="M14.34,19.12l-6.32-1.17c-1.43-.27-2.81-1.42-3.22-2.7L1.79,5.88l-.54-.1c-.92-.17-1.45.37-1.18,1.2l3.35,10.44c.27.83,1.23,1.65,2.15,1.82l7.7,1.43c.92.17,1.45-.37,1.18-1.2l-.11-.35Z"/>
  <path fill="url(#g3)" d="M17.71,4.75l-.47-1.47c-.27-.83-1.23-1.65-2.15-1.82L7.39.03c-.92-.17-1.45.37-1.18,1.2l3.35,10.44c.27.83,1.23,1.65,2.15,1.82l7.7,1.43c.92.17,1.45-.37,1.18-1.2l-2.14-6.66c-.02-.06-.08-.11-.14-.12l-3.29-.61-1.88-.35c-.06-.01-.1.02-.08.08l.92,2.88c.02.06.08.11.14.12l1.77.33c.06.01.13.07.14.12l.61,1.91c.02.06-.02.09-.08.08l-4.01-.74c-.06-.01-.13-.07-.14-.12l-2.28-7.1c-.02-.06.02-.09.08-.08l7.41,1.37c.06.01.1-.02.08-.08Z"/>
</svg>
