<?xml version="1.0" encoding="UTF-8"?>
<svg id="_レイヤー_2" data-name="レイヤー_2" xmlns="http://www.w3.org/2000/svg" xmlns:xlink="http://www.w3.org/1999/xlink" viewBox="0 0 219.37 20.7">
  <defs>
    <style>
      .cls-1 {
        fill: url(#_新規グラデーションスウォッチ_1-3);
      }

      .cls-2 {
        fill: #2c2f32;
      }

      .cls-3 {
        fill: url(#_新規グラデーションスウォッチ_1);
      }

      .cls-4 {
        fill: url(#_新規グラデーションスウォッチ_1-2);
      }
    </style>
    <linearGradient id="_新規グラデーションスウォッチ_1" data-name="新規グラデーションスウォッチ 1" x1="10.33" y1=".07" x2="10.33" y2="21.27" gradientUnits="userSpaceOnUse">
      <stop offset="0" stop-color="#ff3a00"/>
      <stop offset=".96" stop-color="#ed8300"/>
    </linearGradient>
    <linearGradient id="_新規グラデーションスウォッチ_1-2" data-name="新規グラデーションスウォッチ 1" x1="7.26" y1=".07" x2="7.26" y2="21.27" xlink:href="#_新規グラデーションスウォッチ_1"/>
    <linearGradient id="_新規グラデーションスウォッチ_1-3" data-name="新規グラデーションスウォッチ 1" x1="13.39" y1=".07" x2="13.39" y2="21.27" xlink:href="#_新規グラデーションスウォッチ_1"/>
  </defs>
  <g id="_レイヤー_2-2" data-name="レイヤー_2">
    <g>
      <g>
        <path class="cls-3" d="M17.4,16.24l-6.32-1.17c-1.43-.27-2.81-1.42-3.22-2.7L4.86,3.01l-.54-.1c-.92-.17-1.45.37-1.18,1.2l3.35,10.44c.27.83,1.23,1.65,2.15,1.82l7.7,1.43c.92.17,1.45-.37,1.18-1.2l-.11-.35Z"/>
        <path class="cls-4" d="M14.34,19.12l-6.32-1.17c-1.43-.27-2.81-1.42-3.22-2.7L1.79,5.88l-.54-.1c-.92-.17-1.45.37-1.18,1.2l3.35,10.44c.27.83,1.23,1.65,2.15,1.82l7.7,1.43c.92.17,1.45-.37,1.18-1.2l-.11-.35Z"/>
        <path class="cls-1" d="M17.71,4.75l-.47-1.47c-.27-.83-1.23-1.65-2.15-1.82L7.39.03c-.92-.17-1.45.37-1.18,1.2l3.35,10.44c.27.83,1.23,1.65,2.15,1.82l7.7,1.43c.92.17,1.45-.37,1.18-1.2l-2.14-6.66c-.02-.06-.08-.11-.14-.12l-3.29-.61-1.88-.35c-.06-.01-.1.02-.08.08l.92,2.88c.02.06.08.11.14.12l1.77.33c.06.01.13.07.14.12l.61,1.91c.02.06-.02.09-.08.08l-4.01-.74c-.06-.01-.13-.07-.14-.12l-2.28-7.1c-.02-.06.02-.09.08-.08l7.41,1.37c.06.01.1-.02.08-.08Z"/>
      </g>
      <g>
        <path class="cls-2" d="M38.35,17.77v-.95h-8.44v.95h-2.1V3.14h12.64v14.63h-2.1ZM38.35,5.23h-8.44v3.59h8.44v-3.59ZM38.35,10.88h-8.44v3.84h8.44v-3.84Z"/>
        <path class="cls-2" d="M55.87,15.79c-.87-.7-1.95-1.73-2.69-2.62v1.6h-2.64v3h-2.19v-3h-2.62v-1.38c-.7.82-1.73,1.75-2.6,2.42l-1.45-1.88c2.6-1.6,5.15-4.55,6.02-6.52h-5.17v-2.09h5.82v-2.55h2.19v2.55h5.87v2.09h-5.34c1.17,2.04,3.85,4.95,6.19,6.44l-1.4,1.95ZM48.36,9.36c-.52,1.08-1.22,2.24-2.05,3.32h2.05v-3.32ZM50.55,9.38v3.3h2.24c-.92-1.13-1.7-2.25-2.24-3.3Z"/>
        <path class="cls-2" d="M58.44,16.17l-.45-2.07c.72-.1,1.33-.22,1.95-.37v-3.7h-1.57v-1.9h1.57v-2.69h-1.58v-1.9h5.3v1.9h-1.72v2.69h1.58v1.9h-1.58v3.2c.6-.17,1.35-.43,1.87-.63v1.99c-1.78.63-3.5,1.13-5.37,1.58ZM71.18,17.47h-1.1c-1.63,0-1.73-.43-1.73-1.42v-6.16h-.75c0,4.05-1.25,6.24-3.77,7.86l-1.42-1.99c2.34-1.25,3.19-2.64,3.19-5.87h-1.63v-2h8.64v2h-2.25v5.2c0,.25.02.37.27.37.48,0,.6-.13.6-2.97l1.78.87c-.07,3.49-.52,4.1-1.82,4.1ZM64.73,5.26v-2h7.31v2h-7.31Z"/>
        <path class="cls-2" d="M88.22,17.77c-2.77-.67-4.95-2.02-4.95-2.02l1-1.13h-4.84l1,1.13s-2.22,1.47-4.95,2.02l-1.28-1.99c1.55-.18,3.02-.62,4.1-1.17h-3.89v-1.83h14.88v1.83h-4.02c1.22.55,2.54.92,4.24,1.2l-1.28,1.95ZM75.82,11.95V3.12h12.04v8.82h-12.04ZM85.71,4.81h-7.74v.85h7.74v-.85ZM85.71,7.04h-7.74v.88h7.74v-.88ZM85.71,9.31h-7.74v.98h7.74v-.98Z"/>
        <path class="cls-2" d="M97.79,12.93v-2.12c1.27-.48,2.72-1.53,3.37-3.04h-6.82v5.51c0,1.13.53,1.75,2.02,1.75h7.47v2.15h-7.74c-3.05,0-4.05-1.2-4.05-3.5v-5.91h-2.32v-2.14h2.32v-2.47h2.3v2.47h9.71c-.42,4.05-3.02,6.62-6.26,7.29Z"/>
        <path class="cls-2" d="M105.6,6.19v-2.27c2.12.15,4.7.47,6.94.92v2.37c-2.24-.52-4.8-.87-6.94-1.02ZM105.77,17.2v-2.25c5.81-.43,9.71-2.19,10.46-8.77h2.44c-.72,7.79-5.35,10.74-12.9,11.03Z"/>
        <path class="cls-2" d="M121.95,17.42v-2.1c3.64-.53,6.06-1.83,7.59-3.82-2.24-.55-4.45-.92-6.52-1.15,0,0,0-1.8,0-1.79-.87.92-1.92,1.7-3.07,2.2v-2.39c1.47-.88,2.77-2.65,3.47-4.64h10.73v.22c-.27,6.99-3.09,12.56-12.19,13.46ZM124.93,5.86c-.43.82-.98,1.65-1.67,2.44,2.44.28,4.97.67,7.41,1.28.48-1.1.8-2.35.97-3.72h-6.71Z"/>
        <path class="cls-2" d="M134.43,10.73v-2.19h11.92v2.19h-11.92Z"/>
        <path class="cls-2" d="M158.58,7.8v9.78h-2.32V7.8h-.73c-1.27,4.62-4.37,8.04-8.24,9.38v-2.3c2.84-1.37,4.85-3.74,5.89-7.07h-5.75v-2.1h8.84v-2.52h2.32v2.52h2.77v2.1h-2.77Z"/>
        <path class="cls-2" d="M162.6,6.19v-2.27c2.12.15,4.7.47,6.94.92v2.37c-2.24-.52-4.8-.87-6.94-1.02ZM162.77,17.2v-2.25c5.81-.43,9.71-2.19,10.46-8.77h2.44c-.72,7.79-5.35,10.74-12.9,11.03Z"/>
        <path class="cls-2" d="M178.75,17.35v-2.1c4.92-.33,7.99-2.05,9.01-5.3h-11.13v-2.05h13.91v.32c-.4,5.41-4.05,8.96-11.79,9.14ZM177.58,5.94v-2.14h12.04v2.14h-12.04Z"/>
        <path class="cls-2" d="M200.7,8.83v8.92h-2.4v-7.56c-2.14.98-4.54,1.57-6.84,1.92v-2.17c6.51-1.22,9.59-3.69,11.01-6.59h2.59c-.9,2.39-2.45,4.14-4.35,5.47Z"/>
        <path class="cls-2" d="M206.31,6.19v-2.27c2.12.15,4.7.47,6.94.92v2.37c-2.24-.52-4.8-.87-6.94-1.02ZM206.47,17.2v-2.25c5.81-.43,9.71-2.19,10.46-8.77h2.44c-.72,7.79-5.35,10.74-12.9,11.03Z"/>
      </g>
    </g>
  </g>
</svg>